<svg width="1920" height="5120" viewBox="0 0 1920 5120" fill="none" xmlns="http://www.w3.org/2000/svg">
<g clip-path="url(#clip0_6_4)">
<rect width="1920" height="5120" fill="#C4A092"/>
<path fill-rule="evenodd" clip-rule="evenodd" d="M233.066 -152.948C433.985 -177.375 680.684 -160.954 805.337 -62.7418C926.015 32.3383 789.223 162.963 786.039 282.729C782.957 398.646 907.96 527.116 787.259 617.286C663.276 709.909 430.315 694.466 233.066 695.831C32.4294 697.219 -187.435 707.786 -333.976 625.044C-483.404 540.672 -538.104 403.915 -498.561 282.729C-463.887 176.463 -275.074 129.14 -147.346 53.0801C-21.2682 -21.9984 59.4558 -131.842 233.066 -152.948Z" fill="#AD795B"/>
<path fill-rule="evenodd" clip-rule="evenodd" d="M944.948 1691.99C1073.25 1671.92 1222.07 1667.54 1318.63 1735.17C1417.21 1804.21 1413.45 1918.65 1414.55 2020.85C1415.66 2124.25 1431.5 2247.69 1324.82 2311.26C1220.93 2373.16 1076.17 2309.4 944.948 2300.66C833.637 2293.25 717.105 2314.12 625.955 2264.71C519.927 2207.25 412.219 2119.41 428.674 2020.85C444.706 1924.83 600.887 1894.15 698.167 1832.19C780.02 1780.05 840.566 1708.31 944.948 1691.99Z" fill="#705C55"/>
<path fill-rule="evenodd" clip-rule="evenodd" d="M328.054 2502.86C467.943 2505.44 621.935 2517.13 711.364 2596.19C796.73 2671.65 763.296 2779.97 752.131 2877.74C742.309 2963.75 721.793 3046.26 652.036 3115.72C567.744 3199.64 470.027 3301.49 328.054 3299.98C186.579 3298.48 95.0249 3193.78 13.2866 3108.95C-52.3661 3040.81 -64.913 2960.59 -78.7927 2877.74C-95.8532 2775.9 -162.123 2661.88 -75.0494 2581.65C15.0511 2498.63 183.554 2500.19 328.054 2502.86Z" fill="#8C736A"/>
<path fill-rule="evenodd" clip-rule="evenodd" d="M1657.22 3540.53C1870.64 3537 2093.98 3372.34 2267.95 3474.21C2444.57 3577.65 2402.54 3798.68 2402.83 3977.16C2403.12 4156.01 2441.96 4372.67 2269.61 4481.48C2100.82 4588.04 1869.86 4451.08 1657.22 4447.91C1452.5 4444.85 1213.84 4580.72 1066.66 4463.5C919.556 4346.34 1065.49 4145.69 1066.16 3977.16C1066.82 3809.73 919.173 3605.8 1070.51 3494C1222.55 3381.69 1453.01 3543.9 1657.22 3540.53Z" fill="#705C55"/>
<path fill-rule="evenodd" clip-rule="evenodd" d="M1852.12 697.022C1966.09 695.629 2063.02 760.313 2152.8 830.717C2260.25 914.989 2404.58 995.397 2406.97 1132.15C2409.37 1269.45 2270.28 1358.31 2163.53 1444.34C2071.9 1518.19 1969.05 1567.1 1852.12 1579.34C1718.06 1593.37 1570.62 1604.88 1468.13 1517.12C1360.59 1425.04 1311.15 1272.68 1329.89 1132.15C1346.98 1004.03 1459.53 920.601 1558.69 837.979C1645.41 765.73 1739.38 698.4 1852.12 697.022Z" fill="#544541"/>
<path fill-rule="evenodd" clip-rule="evenodd" d="M517.449 4740.58C669.515 4728.46 832.22 4661.86 958.356 4727.53C1094.23 4798.28 1163.78 4939.23 1135.94 5062.6C1110.32 5176.12 953.562 5233.67 829.268 5299.57C734.349 5349.9 632.647 5382.04 517.449 5390.52C385.586 5400.21 248.457 5406.86 138.81 5350.35C7.45158 5282.66 -123.503 5183.16 -118.881 5062.6C-114.306 4943.27 29.4975 4857.31 160.248 4791.15C265.046 4738.11 392.229 4750.56 517.449 4740.58Z" fill="#544541"/>
</g>
<defs>
<clipPath id="clip0_6_4">
<rect width="1920" height="5120" fill="white"/>
</clipPath>
</defs>
</svg>
