<svg width="1500" height="5120" viewBox="0 0 1500 5120" fill="none" xmlns="http://www.w3.org/2000/svg">
<g clip-path="url(#clip0_3_3)">
<rect width="1500" height="5120" fill="#C4A092"/>
<path fill-rule="evenodd" clip-rule="evenodd" d="M84.9066 -153.1C245.819 -177.158 443.394 -160.985 543.226 -64.2573C639.874 29.3855 530.321 158.036 527.771 275.991C525.303 390.156 625.415 516.684 528.747 605.491C429.452 696.714 242.879 681.504 84.9066 682.848C-75.7791 684.215 -251.864 694.623 -369.226 613.131C-488.899 530.035 -532.707 395.346 -501.038 275.991C-473.268 171.332 -322.052 124.724 -219.758 49.8137C-118.784 -24.1299 -54.1342 -132.313 84.9066 -153.1Z" fill="#AD795B"/>
<path fill-rule="evenodd" clip-rule="evenodd" d="M654.778 1663.77C757.526 1644.04 876.696 1639.73 954.029 1706.23C1032.97 1774.12 1029.96 1886.65 1030.84 1987.14C1031.73 2088.81 1044.41 2210.2 958.984 2272.7C875.785 2333.57 759.864 2270.87 654.778 2262.28C565.639 2254.99 472.319 2275.51 399.325 2226.94C314.417 2170.43 228.163 2084.06 241.341 1987.14C254.179 1892.72 379.25 1862.56 457.153 1801.63C522.701 1750.36 571.187 1679.82 654.778 1663.77Z" fill="#705C55"/>
<path fill-rule="evenodd" clip-rule="evenodd" d="M160.845 2461.84C272.819 2464.39 396.082 2475.89 467.666 2553.66C535.997 2627.89 509.235 2734.44 500.298 2830.62C492.436 2915.23 476.014 2996.4 420.177 3064.72C352.705 3147.28 274.488 3247.46 160.845 3245.98C47.6013 3244.51 -25.6835 3141.51 -91.1111 3058.06C-143.663 2991.03 -153.706 2912.12 -164.816 2830.62C-178.472 2730.44 -231.518 2618.28 -161.82 2539.35C-89.6987 2457.68 45.1797 2459.21 160.845 2461.84Z" fill="#8C736A"/>
<path fill-rule="evenodd" clip-rule="evenodd" d="M1225.53 3483.05C1396.45 3479.58 1575.32 3317.36 1714.64 3417.72C1856.09 3519.63 1822.42 3737.39 1822.66 3913.23C1822.9 4089.43 1854 4302.88 1715.97 4410.08C1580.8 4515.07 1395.83 4380.13 1225.53 4377C1061.59 4373.99 870.451 4507.85 752.583 4392.37C634.776 4276.94 751.645 4079.26 752.182 3913.23C752.715 3748.28 634.469 3547.37 755.671 3437.22C877.431 3326.56 1062 3486.38 1225.53 3483.05Z" fill="#705C55"/>
<path fill-rule="evenodd" clip-rule="evenodd" d="M1381.48 684.022C1472.78 682.651 1550.44 746.32 1622.35 815.618C1708.44 898.567 1824.06 977.713 1825.98 1112.32C1827.9 1247.46 1716.47 1334.93 1630.95 1419.61C1557.55 1492.3 1475.16 1540.44 1381.48 1552.49C1274.08 1566.3 1155.97 1577.63 1073.86 1491.25C987.711 1400.61 948.103 1250.65 963.116 1112.32C976.804 986.207 1066.97 904.091 1146.41 822.766C1215.88 751.651 1291.16 685.378 1381.48 684.022Z" fill="#544541"/>
<path fill-rule="evenodd" clip-rule="evenodd" d="M312.765 4664.92C434.562 4652.99 564.881 4587.44 665.91 4652.08C774.742 4721.72 830.442 4860.44 808.144 4981.87C787.626 5093.6 662.07 5150.25 562.517 5215.11C486.491 5264.64 405.033 5296.28 312.765 5304.62C207.149 5314.16 97.3157 5320.7 9.49332 5265.09C-95.7184 5198.46 -200.607 5100.53 -196.905 4981.87C-193.241 4864.42 -78.0607 4779.82 26.6642 4714.69C110.602 4662.49 212.469 4674.75 312.765 4664.92Z" fill="#544541"/>
</g>
<defs>
<clipPath id="clip0_3_3">
<rect width="1500" height="5120" fill="white"/>
</clipPath>
</defs>
</svg>
