<svg width="231" height="42" viewBox="0 0 231 42" fill="none" xmlns="http://www.w3.org/2000/svg">
<path
id="NikesCanvas_Logo"
 d="M9.9247 40.2118C8.87973 40.2118 8.13131 39.9859 7.67943 39.534C7.22755 39.0539 7.00161 38.1642 7.00161 36.8651C7.00161 35.9896 7.08634 34.9305 7.25579 33.6878C7.42525 32.4452 7.72179 30.567 8.14543 28.0535C8.20191 27.7145 8.42785 26.3448 8.82325 23.9442C9.21864 21.5153 9.57167 18.9735 9.88234 16.3187C10.1648 14.0593 10.306 12.3648 10.306 11.2351C10.306 9.96418 9.83997 9.32873 8.90797 9.32873C8.20191 9.32873 7.31228 9.71 6.23906 10.4725C5.19409 11.2069 4.0644 12.393 2.84997 14.0311C2.45458 14.5677 2.01682 14.836 1.5367 14.836C1.14131 14.836 0.788276 14.6524 0.477609 14.2853C0.195185 13.8899 0.0539727 13.4521 0.0539727 12.972C0.0539727 12.4919 0.1387 12.04 0.308155 11.6164C0.477609 11.1645 0.788276 10.6279 1.24015 10.0065C2.62403 8.11431 4.16325 6.65982 5.85779 5.64309C7.55234 4.59812 9.33161 4.07564 11.1956 4.07564C12.7489 4.07564 13.9069 4.55576 14.6694 5.516C15.4602 6.47624 15.8556 7.87424 15.8556 9.71C15.8556 11.3481 15.6297 13.7204 15.1778 16.8271C16.5899 12.6472 18.3833 9.48406 20.558 7.33764C22.7326 5.16297 25.2886 4.07564 28.2258 4.07564C30.5417 4.07564 32.2786 4.73933 33.4365 6.06673C34.6227 7.36588 35.2158 9.11691 35.2158 11.3198C35.2158 12.5625 35.0322 14.0735 34.6651 15.8527L32.0809 27.9687C31.7985 29.3808 31.6572 30.5953 31.6572 31.612C31.6572 32.7982 31.9255 33.6878 32.4622 34.2809C33.027 34.874 33.8037 35.1705 34.7922 35.1705C35.7242 35.1705 36.6279 34.8599 37.5034 34.2385C38.4072 33.6172 39.4663 32.5864 40.6807 31.146C41.0196 30.7506 41.4009 30.5529 41.8245 30.5529C42.1917 30.5529 42.4741 30.7224 42.6718 31.0613C42.8977 31.4002 43.0107 31.8662 43.0107 32.4593C43.0107 33.5607 42.7424 34.4362 42.2058 35.0858C40.7372 36.8651 39.2827 38.1642 37.8423 38.9833C36.402 39.8023 34.891 40.2118 33.3094 40.2118C30.9088 40.2118 29.0307 39.5058 27.6751 38.0936C26.3194 36.6533 25.6416 34.7328 25.6416 32.3322C25.6416 31.4002 25.7122 30.3835 25.8534 29.282C26.0229 28.1805 26.2912 26.7825 26.6583 25.088L28.3529 17.3355C28.4094 17.0813 28.5082 16.6294 28.6494 15.9798C28.7906 15.3302 28.9036 14.723 28.9883 14.1582C29.0731 13.5651 29.1154 12.9861 29.1154 12.4213C29.1154 11.5175 28.8612 10.7973 28.3529 10.2607C27.8445 9.72412 27.1243 9.45582 26.1923 9.45582C24.4978 9.45582 22.8032 10.3596 21.1087 12.1671C19.4142 13.9746 17.8467 16.8977 16.4063 20.9364C14.966 24.9468 13.8363 30.0869 13.0172 36.3567C12.8195 37.7971 12.523 38.7997 12.1276 39.3645C11.7605 39.9294 11.0262 40.2118 9.9247 40.2118ZM45.1199 17.4625C43.9338 17.4625 43.0441 17.1942 42.451 16.6576C41.8579 16.0928 41.5614 15.3161 41.5614 14.3276C41.5614 13.3392 41.9427 12.5201 42.7052 11.8705C43.496 11.1927 44.4704 10.8538 45.6283 10.8538C46.6733 10.8538 47.5205 11.108 48.1701 11.6164C48.8197 12.1247 49.1445 12.8449 49.1445 13.7769C49.1445 14.9066 48.7773 15.8104 48.043 16.4882C47.3087 17.1378 46.3344 17.4625 45.1199 17.4625ZM44.781 40.2118C42.9453 40.2118 41.6038 39.5622 40.7565 38.2631C39.9375 36.9639 39.5279 35.2412 39.5279 33.0947C39.5279 31.8238 39.6833 30.1999 39.9939 28.2229C40.3328 26.2177 40.7565 24.3537 41.2648 22.6309C41.519 21.7272 41.8579 21.1058 42.2816 20.7669C42.7052 20.428 43.383 20.2585 44.315 20.2585C45.7554 20.2585 46.4756 20.7387 46.4756 21.6989C46.4756 22.405 46.2073 24.043 45.6707 26.6131C44.9928 29.7198 44.6539 31.8238 44.6539 32.9253C44.6539 33.7725 44.7669 34.4221 44.9928 34.874C45.2188 35.3259 45.6001 35.5518 46.1367 35.5518C46.645 35.5518 47.2805 35.1988 48.043 34.4927C48.8056 33.7867 49.8223 32.6711 51.0932 31.146C51.4321 30.7506 51.8134 30.5529 52.237 30.5529C52.6042 30.5529 52.8866 30.7224 53.0843 31.0613C53.3102 31.4002 53.4232 31.8662 53.4232 32.4593C53.4232 33.589 53.1549 34.4645 52.6183 35.0858C49.8223 38.5032 47.2099 40.2118 44.781 40.2118ZM74.4819 30.5529C74.8491 30.5529 75.1315 30.7224 75.3292 31.0613C75.5551 31.4002 75.6681 31.8662 75.6681 32.4593C75.6681 33.589 75.3998 34.4645 74.8632 35.0858C73.5923 36.6392 72.3072 37.8818 71.0081 38.8138C69.7089 39.7458 68.1697 40.2118 66.3905 40.2118C64.2158 40.2118 62.4648 39.5905 61.1374 38.3478C59.81 37.1052 59.1463 35.453 59.1463 33.3913C59.1463 32.2898 59.7111 31.499 60.8408 31.0189C62.0835 30.4823 62.9731 29.9175 63.5097 29.3244C64.0463 28.703 64.3146 27.9546 64.3146 27.0791C64.3146 26.5707 64.2017 26.1895 63.9757 25.9353C63.778 25.6811 63.5239 25.554 63.2132 25.554C62.4506 25.554 61.6034 26.1047 60.6714 27.2062C59.7676 28.3076 58.9203 29.7339 58.1295 31.4849C57.3388 33.2077 56.7174 34.987 56.2655 36.8227C55.9549 38.1501 55.5877 39.0539 55.1641 39.534C54.7687 39.9859 54.1332 40.2118 53.2577 40.2118C52.3822 40.2118 51.7326 39.9012 51.309 39.2798C50.9136 38.6302 50.6453 37.6418 50.5041 36.3144C50.3629 34.987 50.2923 33.0382 50.2923 30.4682C50.2923 26.1188 50.73 21.5859 51.6055 16.8695C52.5093 12.153 53.8226 8.19903 55.5454 5.00764C57.2964 1.788 59.3863 0.178183 61.8152 0.178183C63.1143 0.178183 64.1593 0.743032 64.9501 1.87273C65.7691 2.97418 66.1786 4.41455 66.1786 6.19382C66.1786 9.0463 65.3455 12.0118 63.6792 15.0902C62.0129 18.1404 59.3016 21.713 55.5454 25.8082C55.4606 27.2768 55.4183 28.7878 55.4183 30.3411C56.7739 26.8108 58.3272 24.2548 60.0783 22.6733C61.8293 21.0635 63.4674 20.2585 64.9925 20.2585C66.4046 20.2585 67.5343 20.7387 68.3815 21.6989C69.2571 22.6592 69.6948 23.8453 69.6948 25.2575C69.6948 26.8108 69.2994 28.237 68.5086 29.5362C67.7179 30.8353 66.3622 31.9933 64.4417 33.01C64.5547 33.7725 64.8936 34.3939 65.4585 34.874C66.0515 35.3259 66.7576 35.5518 67.5766 35.5518C68.4522 35.5518 69.2994 35.2129 70.1185 34.5351C70.9375 33.8573 72.0107 32.7276 73.3381 31.146C73.677 30.7506 74.0583 30.5529 74.4819 30.5529ZM60.9255 4.37218C60.4172 4.37218 59.8523 5.10649 59.231 6.57509C58.6097 8.01546 58.0025 9.9783 57.4094 12.4636C56.8445 14.9207 56.3785 17.6038 56.0114 20.5127C57.7624 18.451 59.2028 16.2058 60.3325 13.7769C61.4904 11.3481 62.0694 9.14515 62.0694 7.16818C62.0694 6.26443 61.9705 5.57249 61.7728 5.09236C61.5751 4.61224 61.2927 4.37218 60.9255 4.37218ZM91.1474 30.5529C91.5145 30.5529 91.7969 30.7224 91.9946 31.0613C92.2206 31.4002 92.3336 31.8662 92.3336 32.4593C92.3336 33.589 92.0652 34.4645 91.5286 35.0858C90.4837 36.3567 89.0009 37.5288 87.0805 38.602C85.1882 39.6752 83.1548 40.2118 80.9801 40.2118C78.0146 40.2118 75.7129 39.4069 74.0748 37.7971C72.4368 36.1873 71.6177 33.9844 71.6177 31.1884C71.6177 29.2396 72.0272 27.4321 72.8463 25.7658C73.6653 24.0713 74.795 22.7298 76.2354 21.7413C77.704 20.7528 79.3562 20.2585 81.1919 20.2585C82.83 20.2585 84.1432 20.7528 85.1317 21.7413C86.1202 22.7015 86.6145 24.0148 86.6145 25.6811C86.6145 27.6298 85.9084 29.3102 84.4963 30.7224C83.1124 32.1062 80.7542 33.2077 77.4216 34.0267C78.1276 35.3259 79.4691 35.9755 81.4461 35.9755C82.717 35.9755 84.1574 35.5377 85.7672 34.6622C87.4052 33.7584 88.8174 32.5864 90.0036 31.146C90.3425 30.7506 90.7237 30.5529 91.1474 30.5529ZM80.4717 24.4102C79.4268 24.4102 78.5371 25.0174 77.8028 26.2318C77.0968 27.4462 76.7437 28.9148 76.7437 30.6376V30.7224C78.41 30.327 79.7233 29.7339 80.6836 28.9431C81.6438 28.1523 82.1239 27.2344 82.1239 26.1895C82.1239 25.6528 81.9686 25.2292 81.6579 24.9185C81.3755 24.5796 80.9801 24.4102 80.4717 24.4102ZM96.7639 41.1438C95.2953 41.1438 94.1656 40.8049 93.3748 40.1271C92.6122 39.4493 92.231 38.6867 92.231 37.8395C92.231 37.1052 92.4993 36.4697 93.0359 35.9331C93.5725 35.3965 94.3633 35.1282 95.4082 35.1282C95.7754 35.1282 96.199 35.1705 96.6791 35.2553C97.1875 35.3118 97.5688 35.3541 97.8229 35.3824C97.7947 34.6481 97.6253 33.9561 97.3146 33.3065C97.0322 32.657 96.665 32.0356 96.2131 31.4425C95.7613 30.8212 95.3376 30.2846 94.9422 29.8327C94.0667 31.499 93.1912 32.8829 92.3157 33.9844C91.4684 35.0858 90.5364 36.1308 89.5197 37.1193C89.0113 37.6276 88.4747 37.8818 87.9099 37.8818C87.458 37.8818 87.0908 37.7265 86.8084 37.4158C86.526 37.0769 86.3848 36.6674 86.3848 36.1873C86.3848 35.6224 86.5825 35.0999 86.9779 34.6198L87.5286 33.942C89.0819 32.0215 90.254 30.4399 91.0448 29.1973C91.5249 28.3782 92.0897 27.2909 92.7393 25.9353C93.3889 24.5514 94.0243 23.1252 94.6457 21.6565C95.1823 20.4139 96.2979 19.7925 97.9924 19.7925C98.7832 19.7925 99.3339 19.8632 99.6446 20.0044C99.9553 20.1456 100.111 20.3715 100.111 20.6822C100.111 20.8516 100.054 21.1199 99.9411 21.4871C99.8282 21.8542 99.6728 22.2214 99.4751 22.5885C98.9668 23.6053 98.7126 24.4667 98.7126 25.1727C98.7126 25.5964 98.8538 26.0624 99.1362 26.5707C99.4469 27.0791 99.9129 27.7145 100.534 28.4771C101.438 29.6633 102.116 30.68 102.568 31.5273C103.048 32.3463 103.288 33.2501 103.288 34.2385C103.288 34.521 103.26 34.9164 103.203 35.4247C104.587 34.8881 106.211 33.4619 108.075 31.146C108.414 30.7506 108.795 30.5529 109.219 30.5529C109.586 30.5529 109.868 30.7224 110.066 31.0613C110.292 31.4002 110.405 31.8662 110.405 32.4593C110.405 33.5325 110.137 34.408 109.6 35.0858C108.188 36.8368 106.832 38.0372 105.533 38.6867C104.262 39.3081 102.681 39.647 100.788 39.7035C99.6587 40.6637 98.3172 41.1438 96.7639 41.1438ZM124.121 40.2118C120.76 40.2118 117.837 39.6046 115.351 38.3902C112.866 37.1475 110.96 35.3965 109.632 33.1371C108.305 30.8777 107.641 28.2512 107.641 25.2575C107.641 21.1058 108.418 17.4202 109.971 14.2005C111.553 10.9809 113.685 8.49558 116.368 6.74455C119.051 4.96527 122.031 4.07564 125.307 4.07564C128.357 4.07564 130.673 4.86643 132.254 6.448C133.836 8.00133 134.627 10.063 134.627 12.6331C134.627 14.3559 134.316 15.7398 133.695 16.7847C133.102 17.8297 132.24 18.3522 131.111 18.3522C130.32 18.3522 129.698 18.1686 129.247 17.8015C128.795 17.4343 128.569 16.8977 128.569 16.1916C128.569 15.9375 128.625 15.4715 128.738 14.7936C128.908 13.9464 128.992 13.2685 128.992 12.7602C128.992 10.1901 127.623 8.90509 124.883 8.90509C123.019 8.90509 121.24 9.5123 119.545 10.7267C117.851 11.9412 116.481 13.7345 115.436 16.1069C114.391 18.451 113.869 21.247 113.869 24.4949C113.869 27.884 114.815 30.5105 116.707 32.3745C118.599 34.2103 121.395 35.1282 125.095 35.1282C126.931 35.1282 128.781 34.9022 130.645 34.4504C132.537 33.9702 134.627 33.2501 136.914 32.2898C137.338 32.1204 137.691 32.0356 137.973 32.0356C138.425 32.0356 138.764 32.2051 138.99 32.544C139.216 32.8829 139.329 33.3207 139.329 33.8573C139.329 35.5801 138.397 36.851 136.533 37.67C134.528 38.5455 132.438 39.1951 130.263 39.6187C128.117 40.0141 126.069 40.2118 124.121 40.2118ZM141.216 40.2118C139.465 40.2118 138.067 39.5764 137.022 38.3055C135.977 37.0345 135.455 35.3682 135.455 33.3065C135.455 31.0472 135.977 28.9148 137.022 26.9096C138.067 24.8762 139.451 23.2522 141.174 22.0378C142.925 20.7952 144.775 20.1738 146.724 20.1738C147.345 20.1738 147.754 20.3009 147.952 20.5551C148.178 20.781 148.362 21.2047 148.503 21.826C149.096 21.713 149.717 21.6565 150.367 21.6565C151.751 21.6565 152.443 22.1508 152.443 23.1393C152.443 23.7324 152.231 25.1445 151.807 27.3756C151.158 30.6235 150.833 32.8829 150.833 34.1538C150.833 34.5775 150.932 34.9164 151.129 35.1705C151.355 35.4247 151.638 35.5518 151.977 35.5518C152.513 35.5518 153.163 35.2129 153.925 34.5351C154.688 33.829 155.719 32.6993 157.018 31.146C157.357 30.7506 157.738 30.5529 158.162 30.5529C158.529 30.5529 158.811 30.7224 159.009 31.0613C159.235 31.4002 159.348 31.8662 159.348 32.4593C159.348 33.589 159.08 34.4645 158.543 35.0858C157.385 36.5262 156.156 37.7406 154.857 38.7291C153.558 39.7176 152.301 40.2118 151.087 40.2118C150.155 40.2118 149.294 39.9012 148.503 39.2798C147.74 38.6302 147.161 37.7547 146.766 36.6533C145.297 39.0256 143.447 40.2118 141.216 40.2118ZM142.741 35.9331C143.363 35.9331 143.956 35.5659 144.521 34.8316C145.085 34.0973 145.495 33.123 145.749 31.9085L147.317 24.1136C146.13 24.1419 145.029 24.5938 144.012 25.4693C143.024 26.3165 142.233 27.4462 141.64 28.8584C141.047 30.2705 140.75 31.7673 140.75 33.3489C140.75 34.2244 140.92 34.874 141.259 35.2976C141.626 35.7213 142.12 35.9331 142.741 35.9331ZM158.913 40.2118C157.839 40.2118 157.077 39.647 156.625 38.5173C156.201 37.3876 155.99 35.5801 155.99 33.0947C155.99 29.4232 156.512 25.9353 157.557 22.6309C157.811 21.8119 158.221 21.2188 158.786 20.8516C159.379 20.4562 160.198 20.2585 161.243 20.2585C161.807 20.2585 162.203 20.3292 162.429 20.4704C162.655 20.6116 162.768 20.8799 162.768 21.2753C162.768 21.7272 162.556 22.7439 162.132 24.3255C161.85 25.4552 161.624 26.4436 161.454 27.2909C161.285 28.1382 161.144 29.1832 161.031 30.4258C161.963 27.997 163.008 26.02 164.166 24.4949C165.324 22.9698 166.453 21.8825 167.555 21.2329C168.685 20.5833 169.715 20.2585 170.647 20.2585C172.483 20.2585 173.401 21.1764 173.401 23.0122C173.401 24.1136 173.09 26.1047 172.469 28.9855C171.932 31.4425 171.664 33.0665 171.664 33.8573C171.664 34.987 172.074 35.5518 172.893 35.5518C173.457 35.5518 174.121 35.2129 174.884 34.5351C175.675 33.829 176.719 32.6993 178.019 31.146C178.358 30.7506 178.739 30.5529 179.162 30.5529C179.53 30.5529 179.812 30.7224 180.01 31.0613C180.236 31.4002 180.349 31.8662 180.349 32.4593C180.349 33.589 180.08 34.4645 179.544 35.0858C178.329 36.5827 177.016 37.8112 175.604 38.7715C174.22 39.7317 172.638 40.2118 170.859 40.2118C169.419 40.2118 168.331 39.8023 167.597 38.9833C166.863 38.136 166.496 36.9216 166.496 35.34C166.496 34.5492 166.693 33.1371 167.089 31.1036C167.456 29.3244 167.64 28.0958 167.64 27.418C167.64 26.9661 167.484 26.7402 167.174 26.7402C166.806 26.7402 166.284 27.2203 165.606 28.1805C164.957 29.1125 164.279 30.3552 163.573 31.9085C162.895 33.4619 162.344 35.0999 161.92 36.8227C161.61 38.1501 161.243 39.0539 160.819 39.534C160.424 39.9859 159.788 40.2118 158.913 40.2118ZM198.305 27.1215C198.39 27.0932 198.531 27.0791 198.728 27.0791C199.152 27.0791 199.477 27.2203 199.703 27.5027C199.929 27.7852 200.042 28.1664 200.042 28.6465C200.042 29.5221 199.872 30.214 199.533 30.7224C199.194 31.2025 198.686 31.5555 198.008 31.7815C196.709 32.2051 195.325 32.4169 193.857 32.4169C192.614 32.4169 191.442 32.2475 190.34 31.9085C189.521 33.2359 188.618 34.6057 187.629 36.0178C186.5 37.6276 185.525 38.7291 184.706 39.3222C183.887 39.9153 182.955 40.2118 181.91 40.2118C180.752 40.2118 179.834 39.7599 179.156 38.8562C178.507 37.9524 178.097 36.5262 177.928 34.5775C177.589 30.6235 177.42 27.1638 177.42 24.1984V22.7156C177.448 21.7836 177.702 21.1341 178.182 20.7669C178.662 20.3998 179.382 20.2162 180.343 20.2162C181.077 20.2162 181.614 20.3856 181.952 20.7245C182.32 21.0352 182.503 21.5718 182.503 22.3344C182.503 25.5822 182.701 29.8045 183.096 35.0011C184.791 32.4875 186.062 30.4823 186.909 28.9855C186.485 28.1664 186.274 27.1921 186.274 26.0624C186.274 25.1021 186.485 24.1701 186.909 23.2664C187.333 22.3626 187.912 21.6283 188.646 21.0635C189.38 20.4986 190.213 20.2162 191.145 20.2162C191.964 20.2162 192.628 20.5127 193.136 21.1058C193.645 21.6707 193.899 22.5038 193.899 23.6053C193.899 24.8762 193.56 26.3307 192.882 27.9687C193.956 27.9122 195.382 27.7004 197.161 27.3333L198.305 27.1215ZM201.576 40.2118C199.825 40.2118 198.427 39.5764 197.382 38.3055C196.337 37.0345 195.815 35.3682 195.815 33.3065C195.815 31.0472 196.337 28.9148 197.382 26.9096C198.427 24.8762 199.811 23.2522 201.534 22.0378C203.285 20.7952 205.135 20.1738 207.083 20.1738C207.705 20.1738 208.114 20.3009 208.312 20.5551C208.538 20.781 208.721 21.2047 208.863 21.826C209.456 21.713 210.077 21.6565 210.727 21.6565C212.111 21.6565 212.802 22.1508 212.802 23.1393C212.802 23.7324 212.591 25.1445 212.167 27.3756C211.517 30.6235 211.193 32.8829 211.193 34.1538C211.193 34.5775 211.292 34.9164 211.489 35.1705C211.715 35.4247 211.998 35.5518 212.336 35.5518C212.873 35.5518 213.523 35.2129 214.285 34.5351C215.048 33.829 216.079 32.6993 217.378 31.146C217.717 30.7506 218.098 30.5529 218.522 30.5529C218.889 30.5529 219.171 30.7224 219.369 31.0613C219.595 31.4002 219.708 31.8662 219.708 32.4593C219.708 33.589 219.439 34.4645 218.903 35.0858C217.745 36.5262 216.516 37.7406 215.217 38.7291C213.918 39.7176 212.661 40.2118 211.447 40.2118C210.515 40.2118 209.653 39.9012 208.863 39.2798C208.1 38.6302 207.521 37.7547 207.126 36.6533C205.657 39.0256 203.807 40.2118 201.576 40.2118ZM203.101 35.9331C203.723 35.9331 204.316 35.5659 204.88 34.8316C205.445 34.0973 205.855 33.123 206.109 31.9085L207.676 24.1136C206.49 24.1419 205.389 24.5938 204.372 25.4693C203.384 26.3165 202.593 27.4462 202 28.8584C201.407 30.2705 201.11 31.7673 201.11 33.3489C201.11 34.2244 201.28 34.874 201.618 35.2976C201.986 35.7213 202.48 35.9331 203.101 35.9331ZM224.144 41.1438C222.676 41.1438 221.546 40.8049 220.755 40.1271C219.993 39.4493 219.611 38.6867 219.611 37.8395C219.611 37.1052 219.88 36.4697 220.416 35.9331C220.953 35.3965 221.744 35.1282 222.789 35.1282C223.156 35.1282 223.58 35.1705 224.06 35.2553C224.568 35.3118 224.949 35.3541 225.203 35.3824C225.175 34.6481 225.006 33.9561 224.695 33.3065C224.413 32.657 224.046 32.0356 223.594 31.4425C223.142 30.8212 222.718 30.2846 222.323 29.8327C221.447 31.499 220.572 32.8829 219.696 33.9844C218.849 35.0858 217.917 36.1308 216.9 37.1193C216.392 37.6276 215.855 37.8818 215.29 37.8818C214.838 37.8818 214.471 37.7265 214.189 37.4158C213.906 37.0769 213.765 36.6674 213.765 36.1873C213.765 35.6224 213.963 35.0999 214.358 34.6198L214.909 33.942C216.462 32.0215 217.634 30.4399 218.425 29.1973C218.934 28.3782 219.442 27.4039 219.95 26.2742C220.487 25.1445 221.179 23.6053 222.026 21.6565C222.563 20.4139 223.678 19.7925 225.373 19.7925C226.164 19.7925 226.714 19.8632 227.025 20.0044C227.336 20.1456 227.491 20.3715 227.491 20.6822C227.491 20.8516 227.435 21.1199 227.322 21.4871C227.209 21.8542 227.053 22.2214 226.856 22.5885C226.347 23.6053 226.093 24.4667 226.093 25.1727C226.093 25.5964 226.234 26.0624 226.517 26.5707C226.827 27.0791 227.293 27.7145 227.915 28.4771C228.818 29.6633 229.496 30.68 229.948 31.5273C230.428 32.3463 230.668 33.2501 230.668 34.2385C230.668 35.4247 230.386 36.5544 229.821 37.6276C229.284 38.6726 228.522 39.5199 227.533 40.1695C226.545 40.819 225.415 41.1438 224.144 41.1438Z" fill="black"/>
</svg>
